<svg width="22" height="32" viewBox="0 0 22 32" fill="none" xmlns="http://www.w3.org/2000/svg">
<g clip-path="url(#clip0_10_33)">
<path d="M5.97759 31.25C8.87501 31.25 11.2265 28.9353 11.2265 26.0833V20.9167H5.97759C3.08017 20.9167 0.728638 23.2313 0.728638 26.0833C0.728638 28.9353 3.08017 31.25 5.97759 31.25Z" fill="#272D2B"/>
<path d="M0.728638 15.75C0.728638 12.898 3.08017 10.5833 5.97759 10.5833H11.2265V20.9167H5.97759C3.08017 20.9167 0.728638 18.602 0.728638 15.75Z" fill="#272D2B"/>
<path d="M0.728638 5.41667C0.728638 2.56467 3.08017 0.25 5.97759 0.25H11.2265V10.5833H5.97759C3.08017 10.5833 0.728638 8.26867 0.728638 5.41667Z" fill="#272D2B"/>
<path d="M11.2266 0.25H16.4755C19.3729 0.25 21.7245 2.56467 21.7245 5.41667C21.7245 8.26867 19.3729 10.5833 16.4755 10.5833H11.2266V0.25Z" fill="#272D2B"/>
<path d="M21.7245 15.75C21.7245 18.602 19.3729 20.9167 16.4755 20.9167C13.5781 20.9167 11.2266 18.602 11.2266 15.75C11.2266 12.898 13.5781 10.5833 16.4755 10.5833C19.3729 10.5833 21.7245 12.898 21.7245 15.75Z" fill="#272D2B"/>
</g>
<defs>
<clipPath id="clip0_10_33">
<rect width="21" height="31" fill="white" transform="translate(0.726562 0.25)"/>
</clipPath>
</defs>
</svg>
