<svg width="34" height="32" viewBox="0 0 34 32" fill="none" xmlns="http://www.w3.org/2000/svg">
<rect x="0.821655" y="0.25" width="32.2242" height="31.3772" fill="#272D2B"/>
<path d="M12.2045 8.82977C12.8992 8.82977 13.5334 8.89002 14.107 9.00925C14.6806 9.12848 15.1704 9.32428 15.579 9.59663C15.9876 9.86899 16.3047 10.2305 16.5303 10.6823C16.7558 11.1341 16.868 11.6914 16.868 12.3553C16.868 13.072 16.7004 13.6694 16.3666 14.1476C16.0327 14.6258 15.5378 15.0174 14.8843 15.3224C15.7839 15.5746 16.4555 16.0164 16.8989 16.6465C17.3423 17.2765 17.564 18.0371 17.564 18.927C17.564 19.6436 17.4209 20.2649 17.1348 20.7895C16.8486 21.3142 16.4632 21.7421 15.9786 22.0735C15.4939 22.4061 14.9423 22.6508 14.3223 22.8102C13.6984 22.9696 13.0552 23.0499 12.4107 23.0487H5.33301V8.82977H12.2045ZM11.7959 14.5844C12.3682 14.5844 12.8387 14.4513 13.2073 14.1865C13.576 13.9204 13.7603 13.4899 13.759 12.8925C13.759 12.5612 13.6971 12.2888 13.5747 12.0767C13.4522 11.8646 13.2885 11.6977 13.0836 11.5784C12.8786 11.4592 12.644 11.3764 12.3785 11.3299C12.1052 11.2835 11.8281 11.2596 11.5497 11.2609H8.54511V14.5869L11.7959 14.5844ZM11.9802 20.6176C12.2831 20.6188 12.5847 20.5887 12.8799 20.5285C13.1661 20.4682 13.4187 20.3691 13.6365 20.2298C13.8544 20.0904 14.0284 19.9009 14.1586 19.6625C14.2875 19.424 14.3532 19.1177 14.3532 18.7462C14.3532 18.017 14.1418 17.4949 13.719 17.1837C13.2962 16.8711 12.7368 16.7155 12.0421 16.7155H8.54511V20.6188L11.9802 20.6176ZM21.6036 20.3189C22.0393 20.7305 22.667 20.9364 23.4855 20.9364C24.072 20.9364 24.576 20.7933 24.9988 20.5084C25.4216 20.2235 25.6806 19.921 25.776 19.6022H28.332C27.9234 20.8372 27.2957 21.7195 26.4502 22.2505C25.6046 22.7814 24.5824 23.0474 23.3824 23.0474C22.551 23.0474 21.8008 22.9182 21.1332 22.6596C20.4655 22.4011 19.8996 22.0321 19.4356 21.5539C18.9716 21.0757 18.6132 20.5059 18.3619 19.8419C18.1105 19.178 17.9842 18.4475 17.9842 17.6518C17.9842 16.8824 18.1131 16.1658 18.3722 15.5018C18.6313 14.8379 18.9999 14.2643 19.4768 13.7798C19.9538 13.2954 20.5235 12.9138 21.1847 12.6352C21.846 12.3566 22.5794 12.2173 23.3837 12.2173C24.2834 12.2173 25.0671 12.3867 25.7361 12.7256C26.4037 13.0644 26.9528 13.5188 27.3821 14.0899C27.8113 14.6609 28.1219 15.3111 28.3127 16.0415C28.5035 16.772 28.5718 17.5351 28.5177 18.3321H20.8895C20.9295 19.2445 21.168 19.9085 21.6036 20.3189ZM24.8866 14.9032C24.5386 14.5316 24.0101 14.3459 23.3012 14.3459C22.8372 14.3459 22.4518 14.4225 22.1463 14.5743C21.8395 14.7274 21.5946 14.9157 21.4103 15.1416C21.226 15.3675 21.0971 15.606 21.0223 15.8583C20.9475 16.1105 20.9024 16.3365 20.8895 16.5348H25.6136C25.4757 15.8194 25.2334 15.2747 24.8866 14.9032ZM20.392 9.55145H26.2942V11.1454H20.392V9.55145Z" fill="white"/>
</svg>
