<svg width="32" height="31" viewBox="0 0 32 31" fill="none" xmlns="http://www.w3.org/2000/svg">
<path d="M27.1406 25.8121H22.5472V18.8507C22.5472 17.1906 22.5166 15.0537 20.1582 15.0537C17.7658 15.0537 17.3998 16.8623 17.3998 18.7298V25.8116H12.8065V11.4961H17.216V13.4524H17.2779C18.1757 11.9668 19.8512 11.0762 21.6286 11.1401C26.2841 11.1401 27.1425 14.1035 27.1425 17.9589L27.1406 25.8121ZM7.62374 9.53923H7.62318C6.16089 9.53923 4.9576 8.37488 4.9576 6.95973C4.9576 5.54458 6.16089 4.3801 7.62318 4.3801C9.08534 4.3801 10.2885 5.54432 10.2888 6.9592V6.95973C10.2888 8.37461 9.08576 9.5391 7.62374 9.53923ZM9.92035 25.8121H5.32227V11.4961H9.92035V25.8121ZM29.4304 0.25207H3.01402C1.77399 0.238517 0.741676 1.21433 0.726562 2.41438V28.0851C0.741122 29.2858 1.7733 30.2627 3.01402 30.2498H29.4304C30.6741 30.265 31.7099 29.2882 31.7266 28.0851V2.41263C31.7099 1.21004 30.6728 0.234356 29.4304 0.25019V0.25207Z" fill="#272D2B"/>
</svg>
