<svg width="34" height="32" viewBox="0 0 34 32" fill="none" xmlns="http://www.w3.org/2000/svg">
<path fill-rule="evenodd" clip-rule="evenodd" d="M16.5437 0.250001C12.6197 0.24873 8.82333 1.60752 5.83431 4.0831C2.84529 6.55867 0.858801 9.98938 0.230512 13.761C-0.397778 17.5326 0.373157 21.3988 2.40529 24.6674C4.43742 27.9361 7.59805 30.3937 11.3213 31.6002C12.142 31.7494 12.4484 31.2513 12.4484 30.8251C12.4484 30.4415 12.4347 29.1762 12.4265 27.831C7.83055 28.8033 6.86211 25.9343 6.86211 25.9343C6.10979 24.0697 5.02646 23.5795 5.02646 23.5795C3.52729 22.5806 5.13862 22.6019 5.13862 22.6019C6.79919 22.7165 7.67188 24.2588 7.67188 24.2588C9.14642 26.7175 11.5374 26.0089 12.4785 25.5907C12.629 24.5518 13.0557 23.8433 13.529 23.441C9.87138 23.0388 6.00037 21.6589 6.00037 15.4949C5.97581 13.8939 6.58628 12.3454 7.70471 11.1716C7.53236 10.7667 6.96607 9.1311 7.86338 6.9095C7.86338 6.9095 9.25038 6.47796 12.4074 8.55839C15.1162 7.83737 17.9741 7.83737 20.6829 8.55839C23.8234 6.48862 25.2214 6.9095 25.2214 6.9095C26.1187 9.12578 25.5551 10.7613 25.3828 11.1716C26.4982 12.3447 27.1066 13.8911 27.0817 15.4896C27.0817 21.6696 23.2189 23.0281 19.5393 23.4277C20.1302 23.9258 20.6582 24.9061 20.6582 26.4058C20.6582 28.5582 20.6418 30.2923 20.6418 30.8197C20.6418 31.2486 20.9373 31.7494 21.7744 31.5922C25.4923 30.3811 28.6466 27.9221 30.6738 24.6547C32.7009 21.3872 33.4687 17.5243 32.8398 13.7564C32.211 9.98847 30.2266 6.56106 27.2412 4.08676C24.2559 1.61246 20.4641 0.252516 16.5437 0.250001Z" fill="#272D2B"/>
</svg>
